<?xml version="1.0" encoding="UTF-8" standalone="no" ?>
<!DOCTYPE svg PUBLIC "-//W3C//DTD SVG 1.1//EN" "http://www.w3.org/Graphics/SVG/1.1/DTD/svg11.dtd">
<svg xmlns="http://www.w3.org/2000/svg" xmlns:xlink="http://www.w3.org/1999/xlink" version="1.1" width="400" height="400" viewBox="0 0 400 400" xml:space="preserve">
<desc>Created with Fabric.js 3.6.2</desc>
<defs>
</defs>
<g transform="matrix(10 0 0 10 200 200)"  >
<path style="stroke: none; stroke-width: 1; stroke-dasharray: none; stroke-linecap: butt; stroke-dashoffset: 0; stroke-linejoin: miter; stroke-miterlimit: 4; fill: rgb(0,0,0); fill-rule: nonzero; opacity: 1;"  transform=" translate(-12, -12.5)" d="m 18.293 4.293 l -1.086 1.086 l -1.086 -1.086 a 0.999 0.999 0 0 0 -1.414 0 l -1.249 1.249 A 8.427 8.427 0 0 0 10.499 5 C 5.813 5 2 8.813 2 13.5 S 5.813 22 10.499 22 s 8.5 -3.813 8.5 -8.5 a 8.42 8.42 0 0 0 -0.431 -2.654 L 19.914 9.5 a 0.999 0.999 0 0 0 0 -1.414 l -1.293 -1.293 l 1.09 -1.09 C 19.94 5.474 20.556 5 21 5 h 1 V 3 h -1 c -1.4 0 -2.584 1.167 -2.707 1.293 z M 10.499 10 c -0.935 0 -1.813 0.364 -2.475 1.025 A 3.48 3.48 0 0 0 7 13.5 H 5 c 0 -1.468 0.571 -2.849 1.609 -3.888 A 5.464 5.464 0 0 1 10.499 8 v 2 z" stroke-linecap="round" />
</g>
</svg>