<?xml version="1.0" encoding="UTF-8" standalone="no" ?>
<!DOCTYPE svg PUBLIC "-//W3C//DTD SVG 1.1//EN" "http://www.w3.org/Graphics/SVG/1.1/DTD/svg11.dtd">
<svg xmlns="http://www.w3.org/2000/svg" xmlns:xlink="http://www.w3.org/1999/xlink" version="1.1" width="400" height="400" viewBox="0 0 400 400" xml:space="preserve">
<desc>Created with Fabric.js 3.6.2</desc>
<defs>
</defs>
<g transform="matrix(12.5 0 0 12.5 171.88 200)" id="Layer_1_1_"  >
<path style="stroke: none; stroke-width: 1; stroke-dasharray: none; stroke-linecap: butt; stroke-dashoffset: 0; stroke-linejoin: miter; stroke-miterlimit: 4; fill: rgb(0,0,0); fill-rule: nonzero; opacity: 1;"  transform=" translate(-5.75, -8)" d="M 8 16 c 1.257 0 2.442 -0.298 3.5 -0.815 C 8.838 13.886 7 11.161 7 8 s 1.838 -5.886 4.5 -7.185 C 10.442 0.298 9.257 0 8 0 C 3.582 0 0 3.582 0 8 S 3.582 16 8 16 z" stroke-linecap="round" />
</g>
<g transform="matrix(12.5 0 0 12.5 275 162.5)" id="Layer_1_1_"  >
<path style="stroke: none; stroke-width: 1; stroke-dasharray: none; stroke-linecap: butt; stroke-dashoffset: 0; stroke-linejoin: miter; stroke-miterlimit: 4; fill: rgb(0,0,0); fill-rule: nonzero; opacity: 1;"  transform=" translate(-14, -5)" d="M 14 3 c 0 1.105 -0.895 2 -2 2 c 1.105 0 2 0.895 2 2 c 0 -1.105 0.895 -2 2 -2 C 14.895 5 14 4.105 14 3 z" stroke-linecap="round" />
</g>
<g transform="matrix(12.5 0 0 12.5 225 200)" id="Layer_1_1_"  >
<path style="stroke: none; stroke-width: 1; stroke-dasharray: none; stroke-linecap: butt; stroke-dashoffset: 0; stroke-linejoin: miter; stroke-miterlimit: 4; fill: rgb(0,0,0); fill-rule: nonzero; opacity: 1;"  transform=" translate(-10, -8)" d="M 10 6 c 0 1.105 -0.895 2 -2 2 c 1.105 0 2 0.895 2 2 c 0 -1.105 0.895 -2 2 -2 C 10.895 8 10 7.105 10 6 z" stroke-linecap="round" />
</g>
<g transform="matrix(12.5 0 0 12.5 262.5 237.5)" id="Layer_1_1_"  >
<path style="stroke: none; stroke-width: 1; stroke-dasharray: none; stroke-linecap: butt; stroke-dashoffset: 0; stroke-linejoin: miter; stroke-miterlimit: 4; fill: rgb(0,0,0); fill-rule: nonzero; opacity: 1;"  transform=" translate(-13, -11)" d="M 13 13 c 0 -1.105 0.895 -2 2 -2 c -1.105 0 -2 -0.895 -2 -2 c 0 1.105 -0.895 2 -2 2 C 12.105 11 13 11.895 13 13 z" stroke-linecap="round" />
</g>
</svg>