<?xml version="1.0" encoding="UTF-8" standalone="no" ?>
<!DOCTYPE svg PUBLIC "-//W3C//DTD SVG 1.1//EN" "http://www.w3.org/Graphics/SVG/1.1/DTD/svg11.dtd">
<svg xmlns="http://www.w3.org/2000/svg" xmlns:xlink="http://www.w3.org/1999/xlink" version="1.1" width="400" height="400" viewBox="0 0 400 400" xml:space="preserve">
<desc>Created with Fabric.js 3.6.2</desc>
<defs>
</defs>
<g transform="matrix(0.4 0 0 0.4 99.04 67.43)" style="" id="图层_1"  >
		<text xml:space="preserve" font-family="DINAlternate-Bold, DIN Alternate" font-size="161.72" font-style="normal" font-weight="700" style="stroke: rgb(35,24,21); stroke-width: 1; stroke-dasharray: none; stroke-linecap: butt; stroke-dashoffset: 0; stroke-linejoin: miter; stroke-miterlimit: 10; fill: rgb(255,255,255); fill-rule: nonzero; opacity: 1; white-space: pre;" ></text>
</g>
<g transform="matrix(0.4 0 0 0.4 222.92 177.08)" id="图层_1"  >
<path style="stroke: none; stroke-width: 1; stroke-dasharray: none; stroke-linecap: butt; stroke-dashoffset: 0; stroke-linejoin: miter; stroke-miterlimit: 4; fill: rgb(255,255,255); fill-rule: nonzero; opacity: 1;"  transform=" translate(-307.3, -192.7)" d="M 341.66 189.62 h 0 a 3.19 3.19 0 0 1 0 6.16 h 0 a 44.32 44.32 0 0 0 -31.28 31.28 h 0 a 3.19 3.19 0 0 1 -6.16 0 h 0 a 44.32 44.32 0 0 0 -31.28 -31.28 h 0 a 3.19 3.19 0 0 1 0 -6.16 h 0 a 44.32 44.32 0 0 0 31.28 -31.28 h 0 a 3.19 3.19 0 0 1 6.16 0 h 0 A 44.32 44.32 0 0 0 341.66 189.62 Z" stroke-linecap="round" />
</g>
<g transform="matrix(0.4 0 0 0.4 222.92 177.07)" id="图层_1"  >
<path style="stroke: none; stroke-width: 1; stroke-dasharray: none; stroke-linecap: butt; stroke-dashoffset: 0; stroke-linejoin: miter; stroke-miterlimit: 4; fill: rgb(35,24,21); fill-rule: nonzero; opacity: 1;"  transform=" translate(-307.29, -192.67)" d="M 339.67 196.85 c -3.33 -0.9 4.21 -8.58 -1.38 -7.91 a 10.45 10.45 0 0 0 -2 0.68 c -1.72 0.61 -3.42 1.32 -5.07 2.07 a 49.7 49.7 0 0 0 -9.93 6.15 a 51.17 51.17 0 0 0 -13.39 15.6 c -1.64 3 -3.86 6.84 -4.32 10.24 c -0.35 2.53 -2.14 1.38 3.76 1.38 c 4.86 0 4.53 1 3.54 -2.06 a 58.81 58.81 0 0 0 -2.25 -5.78 a 50.43 50.43 0 0 0 -12 -16.73 a 53.52 53.52 0 0 0 -18.89 -11.12 a 10.82 10.82 0 0 0 -2.74 -0.83 v 4.15 q -2 5.08 0.69 4 c 1.37 0 3.4 -1.11 4.7 -1.63 a 50.73 50.73 0 0 0 10.38 -5.47 a 51.2 51.2 0 0 0 19.18 -24.48 c 0.49 -1.26 1.58 -3.32 1.57 -4.73 h -8.31 l 0.39 1.38 a 15.23 15.23 0 0 0 1.18 3.36 a 52.79 52.79 0 0 0 34.94 31.78 c 9.3 2.66 13.27 -11.81 4 -14.46 a 37.08 37.08 0 0 1 -21 -15 c -4.32 -6.59 -5 -18.48 -14.87 -18.87 c -10.58 -0.41 -11.3 12.07 -15.76 18.87 A 37.24 37.24 0 0 1 272.33 182 c -4.12 1.38 -7.58 3.31 -8.83 7.84 A 10.73 10.73 0 0 0 268.7 202 c 3.45 1.9 7.43 2.51 10.91 4.5 a 37.86 37.86 0 0 1 10.21 8.53 a 36.14 36.14 0 0 1 5.86 9.89 c 1.78 4.51 2.41 8.91 7.44 11 a 10.65 10.65 0 0 0 12.16 -2.72 c 2.78 -3.21 3.23 -7.95 5.2 -11.66 c 4.73 -8.91 12.35 -14.94 21.79 -18.22 c 4.62 -1.61 8.37 -4 9.08 -9.27 a 10.71 10.71 0 0 0 -7.7 -11.75 C 334.32 179.87 330.34 194.34 339.67 196.85 Z" stroke-linecap="round" />
</g>
<g transform="matrix(0.4 0 0 0.4 200.01 199.99)" id="图层_1"  >
<path style="stroke: none; stroke-width: 1; stroke-dasharray: none; stroke-linecap: butt; stroke-dashoffset: 0; stroke-linejoin: miter; stroke-miterlimit: 4; fill: rgb(244,236,144); fill-rule: nonzero; opacity: 1;"  transform=" translate(-250.02, -249.98)" d="M 232.91 267.09 a 123.76 123.76 0 0 1 -26.4 -135.9 a 123.73 123.73 0 1 0 162.3 162.3 A 123.76 123.76 0 0 1 232.91 267.09 Z" stroke-linecap="round" />
</g>
<g transform="matrix(0.4 0 0 0.4 199.91 200.09)" id="图层_1"  >
<path style="stroke: none; stroke-width: 1; stroke-dasharray: none; stroke-linecap: butt; stroke-dashoffset: 0; stroke-linejoin: miter; stroke-miterlimit: 4; fill: rgb(35,24,21); fill-rule: nonzero; opacity: 1;"  transform=" translate(-249.78, -250.22)" d="M 238.21 261.79 c -33.59 -34 -42.83 -84.64 -24.47 -128.6 c 2.86 -6.84 -5.89 -10.69 -11 -8.47 A 131.16 131.16 0 0 0 132.38 292 c 11.92 30.67 35.16 56.58 64.88 71 a 131.16 131.16 0 0 0 178 -65.7 c 2.2 -5.09 -1.65 -13.86 -8.47 -11 c -44 18.36 -94.59 9.12 -128.6 -24.47 c -6.88 -6.79 -17.49 3.81 -10.61 10.61 c 37.45 37 94.45 48.68 143.2 28.33 l -8.47 -11 c -12.64 29.21 -36.37 53.08 -66.4 64.19 a 118.32 118.32 0 0 1 -82.67 -0.24 c -55.18 -20.73 -85.84 -82.55 -70.51 -139.07 c 9.41 -34.71 34.67 -62.69 67.55 -76.91 l -11 -8.47 c -20.35 48.74 -8.66 105.75 28.33 143.2 C 234.4 279.27 245 268.66 238.21 261.79 Z" stroke-linecap="round" />
</g>
</svg>